<svg width="25" height="29" viewBox="0 0 25 29" fill="none" xmlns="http://www.w3.org/2000/svg">
<path fill-rule="evenodd" clip-rule="evenodd" d="M14.6345 21.2406C14.5558 23.4739 12.7284 25.267 10.5072 25.267C10.0031 25.267 9.51481 25.1692 9.05797 25.0062C9.51481 25.1855 10.0031 25.267 10.5072 25.267C12.7442 25.267 14.5558 23.4739 14.6345 21.2406V1.2715H18.2577C18.6043 3.16245 19.7227 4.79258 21.2665 5.81956C22.3377 6.52052 23.6295 6.94435 25 6.94435V8.05284V11.9325C22.448 11.9325 20.0851 11.1012 18.1474 9.69927V19.8224C18.1474 24.8758 14.0832 29 9.07372 29C7.13611 29 5.35602 28.3806 3.87524 27.3373C1.54379 25.6745 0 22.9359 0 19.8224C0 14.769 4.06427 10.6447 9.07372 10.6447C9.4833 10.6447 9.89288 10.6773 10.3025 10.7262V11.8999C5.73409 12.0141 2.00063 15.5351 1.49653 20.0506C2.00063 15.5514 5.73409 12.0141 10.3025 11.8999V15.8123C9.90863 15.6818 9.49905 15.6166 9.07372 15.6166C6.78954 15.6166 4.93069 17.4913 4.93069 19.8061C4.93069 21.4199 5.82861 22.8055 7.15186 23.5065C7.71897 23.8162 8.38059 23.9955 9.07372 23.9955C11.3106 23.9955 13.1222 22.2024 13.201 19.9691V0H18.1317C18.1317 0.423834 18.179 0.847667 18.242 1.2715H14.6345V21.2406Z" fill="white"/>
</svg>
